<?xml version="1.0" encoding="UTF-8" standalone="no"?>
<!DOCTYPE svg PUBLIC "-//W3C//DTD SVG 1.1//EN"
 "http://www.w3.org/Graphics/SVG/1.1/DTD/svg11.dtd">
<!-- Generated by graphviz version 2.40.1 (20161225.0304)
 -->
<!-- Title: inheritanceb0c28122fd Pages: 1 -->
<svg width="299pt" height="224pt"
 viewBox="0.00 0.00 299.17 224.00" xmlns="http://www.w3.org/2000/svg" xmlns:xlink="http://www.w3.org/1999/xlink">
<g id="graph0" class="graph" transform="scale(1 1) rotate(0) translate(4 220)">
<title>inheritanceb0c28122fd</title>
<polygon fill="#ffffff" stroke="transparent" points="-4,4 -4,-220 295.167,-220 295.167,4 -4,4"/>
<!-- HpxGeom -->
<g id="node1" class="node">
<title>HpxGeom</title>
<g id="a_node1"><a xlink:href="../../api/gammapy.maps.HpxGeom.html#gammapy.maps.HpxGeom" xlink:title="Geometry class for HEALPIX maps." target="_top">
<polygon fill="none" stroke="#000000" stroke-width=".5" points="169.4258,-54 108.3965,-54 108.3965,-36 169.4258,-36 169.4258,-54"/>
<text text-anchor="middle" x="138.9111" y="-42" font-family="Vera Sans, DejaVu Sans, Liberation Sans, Arial, Helvetica, sans" font-size="10.00" fill="#000000">HpxGeom</text>
</a>
</g>
</g>
<!-- MapGeom -->
<g id="node2" class="node">
<title>MapGeom</title>
<g id="a_node2"><a xlink:href="../../api/gammapy.maps.MapGeom.html#gammapy.maps.MapGeom" xlink:title="Base class for WCS and HEALPix geometries." target="_top">
<polygon fill="none" stroke="#000000" stroke-width=".5" points="66.9734,-36 4.6027,-36 4.6027,-18 66.9734,-18 66.9734,-36"/>
<text text-anchor="middle" x="35.7881" y="-24" font-family="Vera Sans, DejaVu Sans, Liberation Sans, Arial, Helvetica, sans" font-size="10.00" fill="#000000">MapGeom</text>
</a>
</g>
</g>
<!-- MapGeom&#45;&gt;HpxGeom -->
<g id="edge1" class="edge">
<title>MapGeom&#45;&gt;HpxGeom</title>
<path fill="none" stroke="#000000" stroke-width=".5" d="M67.0083,-32.4494C78.4198,-34.4413 91.4145,-36.7095 103.1887,-38.7647"/>
<polygon fill="#000000" stroke="#000000" stroke-width=".5" points="102.9255,-40.4951 108.1519,-39.631 103.5273,-37.0473 102.9255,-40.4951"/>
</g>
<!-- WcsGeom -->
<g id="node10" class="node">
<title>WcsGeom</title>
<g id="a_node10"><a xlink:href="../../api/gammapy.maps.WcsGeom.html#gammapy.maps.WcsGeom" xlink:title="Geometry class for WCS maps." target="_top">
<polygon fill="none" stroke="#000000" stroke-width=".5" points="170.0819,-18 107.7403,-18 107.7403,0 170.0819,0 170.0819,-18"/>
<text text-anchor="middle" x="138.9111" y="-6" font-family="Vera Sans, DejaVu Sans, Liberation Sans, Arial, Helvetica, sans" font-size="10.00" fill="#000000">WcsGeom</text>
</a>
</g>
</g>
<!-- MapGeom&#45;&gt;WcsGeom -->
<g id="edge5" class="edge">
<title>MapGeom&#45;&gt;WcsGeom</title>
<path fill="none" stroke="#000000" stroke-width=".5" d="M67.0083,-21.5506C78.1123,-19.6124 90.7153,-17.4125 102.2342,-15.4019"/>
<polygon fill="#000000" stroke="#000000" stroke-width=".5" points="102.8166,-17.0768 107.4412,-14.493 102.2147,-13.6289 102.8166,-17.0768"/>
</g>
<!-- HpxMap -->
<g id="node3" class="node">
<title>HpxMap</title>
<g id="a_node3"><a xlink:href="../../api/gammapy.maps.HpxMap.html#gammapy.maps.HpxMap" xlink:title="Base class for HEALPIX map classes." target="_top">
<polygon fill="none" stroke="#000000" stroke-width=".5" points="165.9111,-126 111.9111,-126 111.9111,-108 165.9111,-108 165.9111,-126"/>
<text text-anchor="middle" x="138.9111" y="-114" font-family="Vera Sans, DejaVu Sans, Liberation Sans, Arial, Helvetica, sans" font-size="10.00" fill="#000000">HpxMap</text>
</a>
</g>
</g>
<!-- HpxNDMap -->
<g id="node5" class="node">
<title>HpxNDMap</title>
<g id="a_node5"><a xlink:href="../../api/gammapy.maps.HpxNDMap.html#gammapy.maps.HpxNDMap" xlink:title="Representation of a N+2D map using HEALPix with two spatial" target="_top">
<polygon fill="none" stroke="#000000" stroke-width=".5" points="282.387,-162 215.0261,-162 215.0261,-144 282.387,-144 282.387,-162"/>
<text text-anchor="middle" x="248.7065" y="-150" font-family="Vera Sans, DejaVu Sans, Liberation Sans, Arial, Helvetica, sans" font-size="10.00" fill="#000000">HpxNDMap</text>
</a>
</g>
</g>
<!-- HpxMap&#45;&gt;HpxNDMap -->
<g id="edge3" class="edge">
<title>HpxMap&#45;&gt;HpxNDMap</title>
<path fill="none" stroke="#000000" stroke-width=".5" d="M166.0516,-125.8989C181.2447,-130.8804 200.2869,-137.1241 216.2635,-142.3625"/>
<polygon fill="#000000" stroke="#000000" stroke-width=".5" points="215.8193,-144.0585 221.1157,-143.9534 216.9098,-140.7327 215.8193,-144.0585"/>
</g>
<!-- HpxSparseMap -->
<g id="node6" class="node">
<title>HpxSparseMap</title>
<g id="a_node6"><a xlink:href="../../api/gammapy.maps.HpxSparseMap.html#gammapy.maps.HpxSparseMap" xlink:title="Representation of a N+2D map using HEALPIX with two spatial" target="_top">
<polygon fill="none" stroke="#000000" stroke-width=".5" points="291.1275,-126 206.2856,-126 206.2856,-108 291.1275,-108 291.1275,-126"/>
<text text-anchor="middle" x="248.7065" y="-114" font-family="Vera Sans, DejaVu Sans, Liberation Sans, Arial, Helvetica, sans" font-size="10.00" fill="#000000">HpxSparseMap</text>
</a>
</g>
</g>
<!-- HpxMap&#45;&gt;HpxSparseMap -->
<g id="edge4" class="edge">
<title>HpxMap&#45;&gt;HpxSparseMap</title>
<path fill="none" stroke="#000000" stroke-width=".5" d="M166.0516,-117C176.609,-117 189.0249,-117 200.9794,-117"/>
<polygon fill="#000000" stroke="#000000" stroke-width=".5" points="201.0677,-118.7501 206.0677,-117 201.0677,-115.2501 201.0677,-118.7501"/>
</g>
<!-- Map -->
<g id="node4" class="node">
<title>Map</title>
<g id="a_node4"><a xlink:href="../../api/gammapy.maps.Map.html#gammapy.maps.Map" xlink:title="Abstract map class." target="_top">
<polygon fill="none" stroke="#000000" stroke-width=".5" points="62.7881,-108 8.7881,-108 8.7881,-90 62.7881,-90 62.7881,-108"/>
<text text-anchor="middle" x="35.7881" y="-96" font-family="Vera Sans, DejaVu Sans, Liberation Sans, Arial, Helvetica, sans" font-size="10.00" fill="#000000">Map</text>
</a>
</g>
</g>
<!-- Map&#45;&gt;HpxMap -->
<g id="edge2" class="edge">
<title>Map&#45;&gt;HpxMap</title>
<path fill="none" stroke="#000000" stroke-width=".5" d="M62.8825,-103.7293C76.2758,-106.0671 92.5363,-108.9053 106.5767,-111.3561"/>
<polygon fill="#000000" stroke="#000000" stroke-width=".5" points="106.4132,-113.1039 111.6397,-112.2398 107.0151,-109.656 106.4132,-113.1039"/>
</g>
<!-- WcsMap -->
<g id="node11" class="node">
<title>WcsMap</title>
<g id="a_node11"><a xlink:href="../../api/gammapy.maps.WcsMap.html#gammapy.maps.WcsMap" xlink:title="Base class for WCS map classes." target="_top">
<polygon fill="none" stroke="#000000" stroke-width=".5" points="166.3028,-90 111.5194,-90 111.5194,-72 166.3028,-72 166.3028,-90"/>
<text text-anchor="middle" x="138.9111" y="-78" font-family="Vera Sans, DejaVu Sans, Liberation Sans, Arial, Helvetica, sans" font-size="10.00" fill="#000000">WcsMap</text>
</a>
</g>
</g>
<!-- Map&#45;&gt;WcsMap -->
<g id="edge6" class="edge">
<title>Map&#45;&gt;WcsMap</title>
<path fill="none" stroke="#000000" stroke-width=".5" d="M62.8825,-94.2707C76.1695,-91.9515 92.2784,-89.1397 106.242,-86.7024"/>
<polygon fill="#000000" stroke="#000000" stroke-width=".5" points="106.6557,-88.4067 111.2803,-85.8229 106.0538,-84.9588 106.6557,-88.4067"/>
</g>
<!-- MapAxis -->
<g id="node7" class="node">
<title>MapAxis</title>
<g id="a_node7"><a xlink:href="../../api/gammapy.maps.MapAxis.html#gammapy.maps.MapAxis" xlink:title="Class representing an axis of a map." target="_top">
<polygon fill="none" stroke="#000000" stroke-width=".5" points="63.1339,-144 8.4423,-144 8.4423,-126 63.1339,-126 63.1339,-144"/>
<text text-anchor="middle" x="35.7881" y="-132" font-family="Vera Sans, DejaVu Sans, Liberation Sans, Arial, Helvetica, sans" font-size="10.00" fill="#000000">MapAxis</text>
</a>
</g>
</g>
<!-- MapCoord -->
<g id="node8" class="node">
<title>MapCoord</title>
<g id="a_node8"><a xlink:href="../../api/gammapy.maps.MapCoord.html#gammapy.maps.MapCoord" xlink:title="Represents a sequence of n&#45;dimensional map coordinates." target="_top">
<polygon fill="none" stroke="#000000" stroke-width=".5" points="66.9783,-180 4.5979,-180 4.5979,-162 66.9783,-162 66.9783,-180"/>
<text text-anchor="middle" x="35.7881" y="-168" font-family="Vera Sans, DejaVu Sans, Liberation Sans, Arial, Helvetica, sans" font-size="10.00" fill="#000000">MapCoord</text>
</a>
</g>
</g>
<!-- SparseArray -->
<g id="node9" class="node">
<title>SparseArray</title>
<g id="a_node9"><a xlink:href="../../api/gammapy.maps.SparseArray.html#gammapy.maps.SparseArray" xlink:title="Sparse N&#45;dimensional array object." target="_top">
<polygon fill="none" stroke="#000000" stroke-width=".5" points="71.3655,-216 .2107,-216 .2107,-198 71.3655,-198 71.3655,-216"/>
<text text-anchor="middle" x="35.7881" y="-204" font-family="Vera Sans, DejaVu Sans, Liberation Sans, Arial, Helvetica, sans" font-size="10.00" fill="#000000">SparseArray</text>
</a>
</g>
</g>
<!-- WcsNDMap -->
<g id="node12" class="node">
<title>WcsNDMap</title>
<g id="a_node12"><a xlink:href="../../api/gammapy.maps.WcsNDMap.html#gammapy.maps.WcsNDMap" xlink:title="Representation of a N+2D map using WCS with two spatial dimensions" target="_top">
<polygon fill="none" stroke="#000000" stroke-width=".5" points="283.5423,-90 213.8708,-90 213.8708,-72 283.5423,-72 283.5423,-90"/>
<text text-anchor="middle" x="248.7065" y="-78" font-family="Vera Sans, DejaVu Sans, Liberation Sans, Arial, Helvetica, sans" font-size="10.00" fill="#000000">WcsNDMap</text>
</a>
</g>
</g>
<!-- WcsMap&#45;&gt;WcsNDMap -->
<g id="edge7" class="edge">
<title>WcsMap&#45;&gt;WcsNDMap</title>
<path fill="none" stroke="#000000" stroke-width=".5" d="M166.3339,-81C179.1187,-81 194.582,-81 208.6419,-81"/>
<polygon fill="#000000" stroke="#000000" stroke-width=".5" points="208.7509,-82.7501 213.7509,-81 208.7508,-79.2501 208.7509,-82.7501"/>
</g>
</g>
</svg>
