<?xml version="1.0" encoding="UTF-8" standalone="no"?>
<!DOCTYPE svg PUBLIC "-//W3C//DTD SVG 1.1//EN"
 "http://www.w3.org/Graphics/SVG/1.1/DTD/svg11.dtd">
<!-- Generated by graphviz version 2.40.1 (20161225.0304)
 -->
<!-- Title: inheritanceb0c28122fd Pages: 1 -->
<svg width="260pt" height="230pt"
 viewBox="0.00 0.00 260.00 230.00" xmlns="http://www.w3.org/2000/svg" xmlns:xlink="http://www.w3.org/1999/xlink">
<g id="graph0" class="graph" transform="scale(1 1) rotate(0) translate(4 226)">
<title>inheritanceb0c28122fd</title>
<polygon fill="#ffffff" stroke="transparent" points="-4,4 -4,-226 256,-226 256,4 -4,4"/>
<!-- HpxGeom -->
<g id="node1" class="node">
<title>HpxGeom</title>
<g id="a_node1"><a xlink:href="../../api/gammapy.maps.HpxGeom.html#gammapy.maps.HpxGeom" xlink:title="Geometry class for HEALPIX maps." target="_top">
<polygon fill="none" stroke="#000000" stroke-width=".5" points="148,-56 94,-56 94,-37 148,-37 148,-56"/>
<text text-anchor="middle" x="121" y="-44" font-family="Vera Sans, DejaVu Sans, Liberation Sans, Arial, Helvetica, sans" font-size="10.00" fill="#000000">HpxGeom</text>
</a>
</g>
</g>
<!-- MapGeom -->
<g id="node2" class="node">
<title>MapGeom</title>
<g id="a_node2"><a xlink:href="../../api/gammapy.maps.MapGeom.html#gammapy.maps.MapGeom" xlink:title="Base class for WCS and HEALPix geometries." target="_top">
<polygon fill="none" stroke="#000000" stroke-width=".5" points="56,-37 2,-37 2,-18 56,-18 56,-37"/>
<text text-anchor="middle" x="29" y="-25" font-family="Vera Sans, DejaVu Sans, Liberation Sans, Arial, Helvetica, sans" font-size="10.00" fill="#000000">MapGeom</text>
</a>
</g>
</g>
<!-- MapGeom&#45;&gt;HpxGeom -->
<g id="edge1" class="edge">
<title>MapGeom&#45;&gt;HpxGeom</title>
<path fill="none" stroke="#000000" stroke-width=".5" d="M56.1054,-33.0979C66.3086,-35.205 78.0128,-37.6222 88.6471,-39.8184"/>
<polygon fill="#000000" stroke="#000000" stroke-width=".5" points="88.5197,-41.579 93.7704,-40.8765 89.2277,-38.1513 88.5197,-41.579"/>
</g>
<!-- WcsGeom -->
<g id="node10" class="node">
<title>WcsGeom</title>
<g id="a_node10"><a xlink:href="../../api/gammapy.maps.WcsGeom.html#gammapy.maps.WcsGeom" xlink:title="Geometry class for WCS maps." target="_top">
<polygon fill="none" stroke="#000000" stroke-width=".5" points="148,-19 94,-19 94,0 148,0 148,-19"/>
<text text-anchor="middle" x="121" y="-7" font-family="Vera Sans, DejaVu Sans, Liberation Sans, Arial, Helvetica, sans" font-size="10.00" fill="#000000">WcsGeom</text>
</a>
</g>
</g>
<!-- MapGeom&#45;&gt;WcsGeom -->
<g id="edge5" class="edge">
<title>MapGeom&#45;&gt;WcsGeom</title>
<path fill="none" stroke="#000000" stroke-width=".5" d="M56.1054,-22.1968C66.3086,-20.2005 78.0128,-17.9105 88.6471,-15.8299"/>
<polygon fill="#000000" stroke="#000000" stroke-width=".5" points="89.1995,-17.5051 93.7704,-14.8275 88.5274,-14.0702 89.1995,-17.5051"/>
</g>
<!-- HpxMap -->
<g id="node3" class="node">
<title>HpxMap</title>
<g id="a_node3"><a xlink:href="../../api/gammapy.maps.HpxMap.html#gammapy.maps.HpxMap" xlink:title="Base class for HEALPIX map classes." target="_top">
<polygon fill="none" stroke="#000000" stroke-width=".5" points="148,-130 94,-130 94,-111 148,-111 148,-130"/>
<text text-anchor="middle" x="121" y="-118" font-family="Vera Sans, DejaVu Sans, Liberation Sans, Arial, Helvetica, sans" font-size="10.00" fill="#000000">HpxMap</text>
</a>
</g>
</g>
<!-- HpxNDMap -->
<g id="node5" class="node">
<title>HpxNDMap</title>
<g id="a_node5"><a xlink:href="../../api/gammapy.maps.HpxNDMap.html#gammapy.maps.HpxNDMap" xlink:title="Representation of a N+2D map using HEALPix with two spatial" target="_top">
<polygon fill="none" stroke="#000000" stroke-width=".5" points="245.5,-167 190.5,-167 190.5,-148 245.5,-148 245.5,-167"/>
<text text-anchor="middle" x="218" y="-155" font-family="Vera Sans, DejaVu Sans, Liberation Sans, Arial, Helvetica, sans" font-size="10.00" fill="#000000">HpxNDMap</text>
</a>
</g>
</g>
<!-- HpxMap&#45;&gt;HpxNDMap -->
<g id="edge3" class="edge">
<title>HpxMap&#45;&gt;HpxNDMap</title>
<path fill="none" stroke="#000000" stroke-width=".5" d="M145.9799,-130.0284C158.7784,-134.9103 174.46,-140.892 187.919,-146.0258"/>
<polygon fill="#000000" stroke="#000000" stroke-width=".5" points="187.4722,-147.7283 192.7676,-147.8753 188.7196,-144.4581 187.4722,-147.7283"/>
</g>
<!-- HpxSparseMap -->
<g id="node6" class="node">
<title>HpxSparseMap</title>
<g id="a_node6"><a xlink:href="../../api/gammapy.maps.HpxSparseMap.html#gammapy.maps.HpxSparseMap" xlink:title="Representation of a N+2D map using HEALPIX with two spatial" target="_top">
<polygon fill="none" stroke="#000000" stroke-width=".5" points="252,-130 184,-130 184,-111 252,-111 252,-130"/>
<text text-anchor="middle" x="218" y="-118" font-family="Vera Sans, DejaVu Sans, Liberation Sans, Arial, Helvetica, sans" font-size="10.00" fill="#000000">HpxSparseMap</text>
</a>
</g>
</g>
<!-- HpxMap&#45;&gt;HpxSparseMap -->
<g id="edge4" class="edge">
<title>HpxMap&#45;&gt;HpxSparseMap</title>
<path fill="none" stroke="#000000" stroke-width=".5" d="M148.0199,-120.5C157.5585,-120.5 168.4861,-120.5 178.8261,-120.5"/>
<polygon fill="#000000" stroke="#000000" stroke-width=".5" points="178.8462,-122.2501 183.8462,-120.5 178.8462,-118.7501 178.8462,-122.2501"/>
</g>
<!-- Map -->
<g id="node4" class="node">
<title>Map</title>
<g id="a_node4"><a xlink:href="../../api/gammapy.maps.Map.html#gammapy.maps.Map" xlink:title="Abstract map class." target="_top">
<polygon fill="none" stroke="#000000" stroke-width=".5" points="56,-111 2,-111 2,-92 56,-92 56,-111"/>
<text text-anchor="middle" x="29" y="-99" font-family="Vera Sans, DejaVu Sans, Liberation Sans, Arial, Helvetica, sans" font-size="10.00" fill="#000000">Map</text>
</a>
</g>
</g>
<!-- Map&#45;&gt;HpxMap -->
<g id="edge2" class="edge">
<title>Map&#45;&gt;HpxMap</title>
<path fill="none" stroke="#000000" stroke-width=".5" d="M56.1054,-107.0979C66.3086,-109.205 78.0128,-111.6222 88.6471,-113.8184"/>
<polygon fill="#000000" stroke="#000000" stroke-width=".5" points="88.5197,-115.579 93.7704,-114.8765 89.2277,-112.1513 88.5197,-115.579"/>
</g>
<!-- WcsMap -->
<g id="node11" class="node">
<title>WcsMap</title>
<g id="a_node11"><a xlink:href="../../api/gammapy.maps.WcsMap.html#gammapy.maps.WcsMap" xlink:title="Base class for WCS map classes." target="_top">
<polygon fill="none" stroke="#000000" stroke-width=".5" points="148,-93 94,-93 94,-74 148,-74 148,-93"/>
<text text-anchor="middle" x="121" y="-81" font-family="Vera Sans, DejaVu Sans, Liberation Sans, Arial, Helvetica, sans" font-size="10.00" fill="#000000">WcsMap</text>
</a>
</g>
</g>
<!-- Map&#45;&gt;WcsMap -->
<g id="edge6" class="edge">
<title>Map&#45;&gt;WcsMap</title>
<path fill="none" stroke="#000000" stroke-width=".5" d="M56.1054,-96.1968C66.3086,-94.2005 78.0128,-91.9105 88.6471,-89.8299"/>
<polygon fill="#000000" stroke="#000000" stroke-width=".5" points="89.1995,-91.5051 93.7704,-88.8275 88.5274,-88.0702 89.1995,-91.5051"/>
</g>
<!-- MapAxis -->
<g id="node7" class="node">
<title>MapAxis</title>
<g id="a_node7"><a xlink:href="../../api/gammapy.maps.MapAxis.html#gammapy.maps.MapAxis" xlink:title="Class representing an axis of a map." target="_top">
<polygon fill="none" stroke="#000000" stroke-width=".5" points="56,-148 2,-148 2,-129 56,-129 56,-148"/>
<text text-anchor="middle" x="29" y="-136" font-family="Vera Sans, DejaVu Sans, Liberation Sans, Arial, Helvetica, sans" font-size="10.00" fill="#000000">MapAxis</text>
</a>
</g>
</g>
<!-- MapCoord -->
<g id="node8" class="node">
<title>MapCoord</title>
<g id="a_node8"><a xlink:href="../../api/gammapy.maps.MapCoord.html#gammapy.maps.MapCoord" xlink:title="Represents a sequence of n&#45;dimensional map coordinates." target="_top">
<polygon fill="none" stroke="#000000" stroke-width=".5" points="56,-185 2,-185 2,-166 56,-166 56,-185"/>
<text text-anchor="middle" x="29" y="-173" font-family="Vera Sans, DejaVu Sans, Liberation Sans, Arial, Helvetica, sans" font-size="10.00" fill="#000000">MapCoord</text>
</a>
</g>
</g>
<!-- SparseArray -->
<g id="node9" class="node">
<title>SparseArray</title>
<g id="a_node9"><a xlink:href="../../api/gammapy.maps.SparseArray.html#gammapy.maps.SparseArray" xlink:title="Sparse N&#45;dimensional array object." target="_top">
<polygon fill="none" stroke="#000000" stroke-width=".5" points="58,-222 0,-222 0,-203 58,-203 58,-222"/>
<text text-anchor="middle" x="29" y="-210" font-family="Vera Sans, DejaVu Sans, Liberation Sans, Arial, Helvetica, sans" font-size="10.00" fill="#000000">SparseArray</text>
</a>
</g>
</g>
<!-- WcsNDMap -->
<g id="node12" class="node">
<title>WcsNDMap</title>
<g id="a_node12"><a xlink:href="../../api/gammapy.maps.WcsNDMap.html#gammapy.maps.WcsNDMap" xlink:title="Representation of a N+2D map using WCS with two spatial dimensions" target="_top">
<polygon fill="none" stroke="#000000" stroke-width=".5" points="246.5,-93 189.5,-93 189.5,-74 246.5,-74 246.5,-93"/>
<text text-anchor="middle" x="218" y="-81" font-family="Vera Sans, DejaVu Sans, Liberation Sans, Arial, Helvetica, sans" font-size="10.00" fill="#000000">WcsNDMap</text>
</a>
</g>
</g>
<!-- WcsMap&#45;&gt;WcsNDMap -->
<g id="edge7" class="edge">
<title>WcsMap&#45;&gt;WcsNDMap</title>
<path fill="none" stroke="#000000" stroke-width=".5" d="M148.0199,-83.5C159.3015,-83.5 172.5263,-83.5 184.4236,-83.5"/>
<polygon fill="#000000" stroke="#000000" stroke-width=".5" points="184.4317,-85.2501 189.4317,-83.5 184.4316,-81.7501 184.4317,-85.2501"/>
</g>
</g>
</svg>
